<svg width="49" height="48" viewBox="0 0 49 48" fill="none" xmlns="http://www.w3.org/2000/svg">
<path d="M12.9408 2.69443C9.60998 4.4253 6.73108 6.91253 4.53492 9.95671C2.33875 13.0009 0.886432 16.5173 0.2944 20.224H1.6864C10.6624 20.016 17.6992 19.2384 23.4464 17.4784C20.9504 13.0528 17.904 8.71042 14.2496 4.29443L14.2464 4.29123L12.9408 2.69443V2.69443ZM0.00639999 23.424L0 24C0 30.4544 2.5472 36.3136 6.69119 40.6272L7.20639 39.5904C7.23502 39.533 7.26707 39.4775 7.30239 39.424C12.608 31.3536 18.6112 26.5536 25.3248 24.4C25.7792 24.2528 26.24 24.1184 26.7008 23.9968C26.1632 22.7645 25.5902 21.548 24.9824 20.3488C18.6944 22.3744 11.136 23.2064 1.7408 23.4208H0.00959999L0.00639999 23.424Z" fill="#4E13AE"/>
<path d="M9.15195 42.8576C13.3801 46.1964 18.6124 48.0085 23.9999 48C26.8575 48 29.5999 47.5008 32.1375 46.5856V44.2816C31.3567 38.0896 29.9839 32.4096 27.9199 26.9888C27.3759 27.1232 26.8351 27.2768 26.3007 27.4464C20.4703 29.3184 15.0207 33.536 10.0287 41.104L9.15515 42.8576H9.15195ZM35.3375 45.1584C38.4308 43.4985 41.1231 41.1813 43.225 38.3695C45.3268 35.5578 46.7874 32.3198 47.5039 28.8832L45.6959 28.0672C40.4927 26.5376 35.6447 25.9104 31.1263 26.4192C33.1679 31.9232 34.5407 37.7024 35.3247 43.9808C35.3343 44.0448 35.3375 44.1088 35.3375 44.1792V45.1584V45.1584ZM47.9487 25.5744C48.3712 19.2886 46.2954 13.0901 42.1727 8.32642L41.2223 9.37922C37.4783 13.9328 33.2031 17.0912 28.0063 19.2416C28.6847 20.5984 29.3183 21.9648 29.9039 23.3504C35.2543 22.5824 40.8799 23.3056 46.7071 25.0304C46.7781 25.0511 46.8476 25.0768 46.9151 25.1072L47.9487 25.5744V25.5744ZM39.9231 6.04162C35.5368 2.14166 29.8693 -0.00872512 23.9999 2.66088e-05C21.1903 2.66088e-05 18.4959 0.480026 15.9903 1.36963L16.7199 2.25922C20.6239 6.97282 23.8623 11.632 26.5055 16.3968C31.4431 14.4032 35.3567 11.488 38.7743 7.31842C38.7898 7.29883 38.8058 7.27962 38.8223 7.26082L39.9231 6.04482V6.04162Z" fill="#4E13AE"/>
</svg>
