<svg width="48" height="47" viewBox="0 0 48 47" fill="none" xmlns="http://www.w3.org/2000/svg">
<path fill-rule="evenodd" clip-rule="evenodd" d="M23.957 0.000143115C18.2687 0.000908642 12.7661 2.02543 8.43371 5.71155C4.1013 9.39768 1.22165 14.5049 0.30986 20.1197C-0.601927 25.7345 0.513639 31.4906 3.457 36.3582C6.40037 41.2258 10.9795 44.8875 16.3753 46.6882C17.5733 46.9107 18.0868 46.1748 18.0868 45.5416V41.4684C11.4293 42.906 10.0259 38.2508 10.0259 38.2508C9.55771 36.7839 8.57238 35.537 7.25334 34.7424C5.07981 33.2706 7.42448 33.2877 7.42448 33.2877C8.18369 33.3949 8.90834 33.6743 9.54309 34.1043C10.1778 34.5344 10.7059 35.1039 11.087 35.7693C11.7499 36.9583 12.8579 37.8353 14.1673 38.2076C15.4767 38.5799 16.8804 38.4169 18.0696 37.7545C18.1663 36.5402 18.7016 35.4026 19.5757 34.5541C14.2702 33.938 8.67383 31.8843 8.67383 22.711C8.63503 20.3285 9.51796 18.023 11.1383 16.2759C10.4049 14.2123 10.4906 11.946 11.3779 9.94361C11.3779 9.94361 13.3803 9.29327 17.967 12.391C21.8887 11.3212 26.0253 11.3212 29.947 12.391C34.5166 9.29327 36.519 9.94361 36.519 9.94361C37.4062 11.946 37.492 14.2123 36.7586 16.2759C38.3789 18.023 39.2619 20.3285 39.2231 22.711C39.2231 31.9185 33.6266 33.938 28.2869 34.537C28.8589 35.1168 29.3 35.8124 29.5805 36.577C29.861 37.3417 29.9743 38.1575 29.9128 38.9697V45.5416C29.9128 46.3288 30.3407 46.9279 31.6243 46.6882C37.0271 44.8853 41.611 41.2165 44.5539 36.3399C47.4968 31.4634 48.6063 25.6979 47.6832 20.0774C46.7602 14.4569 43.8652 9.34902 39.5172 5.66975C35.1692 1.99048 29.6527 -0.0195341 23.957 0.000143115V0.000143115Z" fill="#4E13AE"/>
</svg>
