<svg width="48" height="48" viewBox="0 0 48 48" fill="none" xmlns="http://www.w3.org/2000/svg">
<path fill-rule="evenodd" clip-rule="evenodd" d="M5.93585e-07 4.01019C5.93585e-07 2.94662 0.422501 1.92662 1.17456 1.17456C1.92661 0.422505 2.94662 5.34614e-06 4.01018 5.34614e-06H43.9855C44.5125 -0.000855494 45.0346 0.102252 45.5218 0.303424C46.0089 0.504595 46.4516 0.799881 46.8245 1.17238C47.1974 1.54487 47.4932 1.98726 47.6949 2.47421C47.8966 2.96116 48.0003 3.48311 48 4.01019V43.9855C48.0006 44.5126 47.8972 45.0347 47.6958 45.5219C47.4944 46.0091 47.1989 46.4518 46.8262 46.8247C46.4535 47.1975 46.011 47.4933 45.5239 47.695C45.0369 47.8966 44.5148 48.0003 43.9876 48H4.01018C3.48337 48 2.96173 47.8962 2.47505 47.6945C1.98837 47.4929 1.54619 47.1973 1.17378 46.8247C0.801376 46.4521 0.506033 46.0097 0.304631 45.5229C0.103229 45.0361 -0.000286027 44.5144 5.93585e-07 43.9876V4.01019ZM18.9993 18.3011H25.4989V21.5651C26.4371 19.6887 28.8371 18 32.4436 18C39.3578 18 40.9964 21.7375 40.9964 28.5949V41.2975H33.9993V30.1571C33.9993 26.2516 33.0611 24.048 30.6785 24.048C27.3731 24.048 25.9985 26.424 25.9985 30.1571V41.2975H18.9993V18.3011ZM6.99927 40.9985H13.9985V18H6.99927V40.9964V40.9985ZM15 10.4989C15.0132 11.0982 14.9066 11.6941 14.6863 12.2516C14.4661 12.8091 14.1368 13.317 13.7176 13.7455C13.2984 14.174 12.7979 14.5145 12.2454 14.7469C11.6928 14.9794 11.0994 15.0991 10.5 15.0991C9.90057 15.0991 9.30718 14.9794 8.75464 14.7469C8.20211 14.5145 7.70157 14.174 7.2824 13.7455C6.86323 13.317 6.53388 12.8091 6.31366 12.2516C6.09344 11.6941 5.9868 11.0982 6 10.4989C6.0259 9.3226 6.51139 8.20319 7.35248 7.38041C8.19357 6.55764 9.3234 6.09692 10.5 6.09692C11.6766 6.09692 12.8064 6.55764 13.6475 7.38041C14.4886 8.20319 14.9741 9.3226 15 10.4989V10.4989Z" fill="#4E13AE"/>
</svg>
