<svg width="49" height="48" viewBox="0 0 49 48" fill="none" xmlns="http://www.w3.org/2000/svg">
<path d="M44.533 11.0997C37.3329 -0.000366929 22.6328 -3.30039 11.2327 3.59966C0.13264 10.4997 -3.46739 25.4998 3.73267 36.5999L4.33267 37.4999L1.93265 46.5L10.9327 44.1L11.8327 44.7C15.7328 46.8 19.9328 48 24.1328 48C28.6329 48 33.1329 46.8 37.0329 44.4C48.133 37.1999 51.433 22.4998 44.533 11.0997V11.0997ZM38.2329 34.1999C37.0329 35.9999 35.5329 37.1999 33.4329 37.4999C32.2329 37.4999 30.7329 38.0999 24.7328 35.6999C19.6328 33.2999 15.4328 29.3999 12.4327 24.8998C10.6327 22.7998 9.73271 20.0998 9.43271 17.3998C9.43271 14.9997 10.3327 12.8997 11.8327 11.3997C12.4327 10.7997 13.0327 10.4997 13.6327 10.4997H15.1328C15.7328 10.4997 16.3328 10.4997 16.6328 11.6997C17.2328 13.1997 18.7328 16.7998 18.7328 17.0998C19.0328 17.3998 19.0328 17.9998 18.7328 18.2998C19.0328 18.8998 18.7328 19.4998 18.4328 19.7998C18.1328 20.0998 17.8328 20.6998 17.5328 20.9998C16.9328 21.2998 16.6328 21.8998 16.9328 22.4998C18.1328 24.2998 19.6328 26.0998 21.1328 27.5998C22.9328 29.0999 24.7328 30.2999 26.8328 31.1999C27.4328 31.4999 28.0329 31.4999 28.3329 30.8999C28.6329 30.2999 30.1329 28.7999 30.7329 28.1998C31.3329 27.5998 31.6329 27.5998 32.2329 27.8998L37.0329 30.2999C37.6329 30.5999 38.2329 30.8999 38.5329 31.1999C38.8329 32.0999 38.8329 33.2999 38.2329 34.1999V34.1999Z" fill="#4E13AE"/>
</svg>
